<svg width="14" height="15" fill="none" xmlns="http://www.w3.org/2000/svg"><path d="M7.088 10.125v1.225" stroke="#F90" stroke-width=".875" stroke-linecap="round" stroke-linejoin="round"/><path d="M4.17 13.333h5.834v-.583a1.17 1.17 0 0 0-1.166-1.167h-3.5A1.17 1.17 0 0 0 4.17 12.75v.583Z" stroke="#F90" stroke-width=".875" stroke-miterlimit="10"/><path d="M3.588 13.333h7" stroke="#F90" stroke-width=".875" stroke-linecap="round" stroke-linejoin="round"/><path d="M7 9.833A4.08 4.08 0 0 1 2.917 5.75V4A2.333 2.333 0 0 1 5.25 1.667h3.5A2.333 2.333 0 0 1 11.083 4v1.75A4.08 4.08 0 0 1 7 9.833Z" fill="#F90" fill-opacity=".2" stroke="#F90" stroke-width=".875" stroke-linecap="round" stroke-linejoin="round"/><path d="M3.19 7.296a2.834 2.834 0 0 1-1.125-.7c-.525-.584-.875-1.284-.875-2.1 0-.817.642-1.459 1.458-1.459h.38a2.19 2.19 0 0 0-.175.875v1.75c0 .584.122 1.132.338 1.634ZM10.81 7.296c.437-.14.822-.397 1.125-.7.525-.584.875-1.284.875-2.1 0-.817-.642-1.459-1.458-1.459h-.38c.117.269.176.566.176.875v1.75a4.11 4.11 0 0 1-.339 1.634Z" stroke="#F90" stroke-width=".875" stroke-linecap="round" stroke-linejoin="round"/></svg>