<svg fill="none" xmlns="http://www.w3.org/2000/svg"><path d="m2.315 9.536.48-.139-.48.14Zm0-4.432-.48-.139.48.14Zm11.37 0 .48-.139-.48.14Zm0 4.432-.48-.139.48.14Zm-2.475 2.302-.094-.49.094.49Zm-6.42 0 .094-.49-.094.49Zm0-9.036-.093-.49.093.49Zm6.42 0 .093-.49-.093.49ZM2.347 9.647l-.48.14.48-.14Zm11.306 0 .48.14-.48-.14Zm0-4.654-.48.14.48-.14Zm-11.306 0 .48.14-.48-.14ZM8.5 12.45a.5.5 0 1 0-1 0h1Zm-1 2.051a.5.5 0 0 0 1 0h-1ZM6.243 14a.5.5 0 0 0 0 1v-1Zm3.514 1a.5.5 0 0 0 0-1v1Zm3.416-9.868.032.111.96-.278-.031-.11-.961.277Zm.032 4.265-.032.112.96.277.033-.11-.96-.279ZM2.827 9.51l-.032-.112-.96.278.031.111.961-.277Zm-.032-4.266.032-.11-.96-.279-.033.111.96.278Zm0 4.154a7.464 7.464 0 0 1 0-4.154l-.96-.278a8.464 8.464 0 0 0 0 4.71l.96-.278Zm10.41-4.154a7.463 7.463 0 0 1 0 4.154l.96.278a8.464 8.464 0 0 0 0-4.71l-.96.278Zm-2.088 6.104a16.694 16.694 0 0 1-6.233 0l-.187.983c2.181.414 4.425.414 6.606 0l-.187-.983ZM4.884 3.293a16.693 16.693 0 0 1 6.232 0l.187-.982a17.693 17.693 0 0 0-6.606 0l.187.982Zm0 8.054c-.996-.189-1.787-.905-2.057-1.838l-.96.277c.378 1.307 1.476 2.286 2.83 2.544l.187-.983Zm6.42.983c1.353-.258 2.451-1.237 2.83-2.544l-.961-.277c-.27.933-1.061 1.649-2.056 1.838l.186.983Zm-.188-9.037c.996.19 1.787.905 2.057 1.84l.96-.279c-.378-1.307-1.476-2.286-2.83-2.543l-.187.982Zm-6.42-.982c-1.353.257-2.451 1.236-2.83 2.543l.961.278c.27-.934 1.061-1.65 2.057-1.839l-.187-.982ZM7.5 12.45V14.5h1v-2.051h-1ZM6.243 15h3.514v-1H6.243v1Z" fill="currentColor"/><path d="m5.333 8 1.373-1.08c.25-.198.376-.297.514-.28.139.018.235.145.429.399l.702.922c.194.254.29.38.429.398.138.018.264-.08.514-.278L10.667 7" stroke="text-amber-500" stroke-linecap="round"/></svg>